<?xml version="1.0" encoding="UTF-8"?>
<svg width="32px" height="32px" viewBox="0 0 32 32" version="1.1" xmlns="http://www.w3.org/2000/svg" xmlns:xlink="http://www.w3.org/1999/xlink">
    <!-- Generator: Sketch 51.2 (57519) - http://www.bohemiancoding.com/sketch -->
    <title>Type / White / Video</title>
    <desc>Created with Sketch.</desc>
    <defs></defs>
    <g id="Type-/-White-/-Video" stroke="none" stroke-width="1" fill="none" fill-rule="evenodd">
        <g id="-g-video" transform="translate(3.000000, 8.000000)" fill="#FFFFFF">
            <path d="M19,-8.8817842e-16 L19,14 L2,14 C0.8954305,14 1.11632554e-15,13.1045695 0,12 L0,2 C-1.3527075e-16,0.8954305 0.8954305,-6.85272294e-16 2,-8.8817842e-16 L3.6626506,-8.8817842e-16 L18.0080321,-8.8817842e-16 L19,-8.8817842e-16 Z M21,9.59 L21,4.55 L26,0 L26,14 L21,9.59 Z" id="Shape"></path>
        </g>
        <path d="M12,25 L17,25 C18.1045695,25 19,25.8954305 19,27 L19,28 L10,28 L10,27 C10,25.8954305 10.8954305,25 12,25 Z" id="Rectangle" fill="#FFFFFF"></path>
    </g>
</svg>